# xmcd
#
# Track frame offsets: 
#        150
#        23042
#        43840
#        67410
#        88910
#        108072
#        126767
#        146050
#        166037
#        193215
#
# Disc length: 2808 seconds
#
# Revision: 2
# Processed by: cddbd v1.5.2PL0 Copyright (c) Steve Scherf et al.
# Submitted via: ExactAudioCopy v0.99pb4
#
DISCID=8f0af60a
DTITLE=PH Factor - PH Factor
DYEAR=1992
DGENRE=Gospel
TTITLE0=Stairway to Heaven
TTITLE1=Thanks
TTITLE2=Created By Love
TTITLE3=One Touch
TTITLE4=Reach Up For Love
TTITLE5=Keep Moving
TTITLE6=Praying For You
TTITLE7=Lord, You've Been So Good To Me
TTITLE8=Medley For Dad: Just To Behold His Face,Too Close,Save A Seat 
TTITLE8=For Me
TTITLE9=Hold On
EXTD=
EXTT0=
EXTT1=
EXTT2=
EXTT3=
EXTT4=
EXTT5=
EXTT6=
EXTT7=
EXTT8=
EXTT9=
PLAYORDER=
